<svg width="133" height="24" viewBox="0 0 133 24" fill="none" xmlns="http://www.w3.org/2000/svg">
  <path d="M43.4119 18.5037C42.5302 18.1734 41.8225 17.6987 41.2888 17.0765C40.755 16.4543 40.4543 15.6964 40.3923 14.8L43.5298 14.4225C43.5918 14.8472 43.7539 15.2158 44.0134 15.5313C44.2729 15.8468 44.6238 16.0975 45.0632 16.2862C45.5026 16.4749 46.0068 16.5693 46.573 16.5693C47.03 16.5693 47.4429 16.5073 47.8115 16.3805C48.1801 16.2537 48.4749 16.0857 48.6961 15.8734C48.9173 15.661 49.0264 15.4222 49.0264 15.1538C49.0411 14.8236 48.8524 14.5434 48.4602 14.3164C48.068 14.0893 47.4458 13.9124 46.5966 13.7856L44.7329 13.4789C43.4119 13.2578 42.4447 12.8774 41.8313 12.3348C41.218 11.7922 40.9202 11.0167 40.9349 10.0111C40.9349 9.2238 41.1561 8.53378 41.5954 7.93518C42.0348 7.33657 42.6452 6.87656 43.4237 6.55514C44.2022 6.23372 45.0956 6.07153 46.1012 6.07153C47.1067 6.07153 47.9294 6.22192 48.7079 6.51975C49.4864 6.81758 50.1204 7.23926 50.6069 7.78184C51.0935 8.32442 51.3854 8.94072 51.4798 9.63369L48.4366 10.1055C48.4042 9.61894 48.1624 9.21791 47.7053 8.90238C47.2483 8.58686 46.6821 8.43058 46.0068 8.43058C45.6294 8.43058 45.2903 8.4925 44.9924 8.6193C44.6946 8.7461 44.4587 8.90238 44.2847 9.09111C44.1107 9.27983 44.0164 9.49214 44.0016 9.72805C44.0016 10.0111 44.1579 10.247 44.4735 10.4358C44.789 10.6245 45.308 10.7896 46.0304 10.9312L47.8704 11.2142C49.4127 11.4973 50.5244 11.9338 51.2085 12.5235C51.8926 13.1133 52.2346 13.8947 52.2346 14.8708C52.2346 15.6876 51.9899 16.413 51.5033 17.0411C51.0168 17.6692 50.3268 18.1528 49.4392 18.4919C48.5516 18.831 47.5313 18.9991 46.3843 18.9991C45.2372 18.9991 44.2936 18.834 43.4119 18.5037Z" fill="black"/>
  <path d="M58.8871 18.3143C58.1941 17.8897 57.6132 17.2675 57.1414 16.4507H57.1178L56.5988 18.5738H53.6265V1.0697H57.165V8.59505H57.1886C57.628 7.79297 58.2059 7.17962 58.9225 6.75499C59.639 6.33037 60.4352 6.11805 61.3169 6.11805C62.3696 6.11805 63.3073 6.38934 64.1241 6.93192C64.9409 7.4745 65.5838 8.22645 66.0467 9.18481C66.5097 10.1432 66.7427 11.2608 66.7427 12.5346C66.7427 13.8085 66.5097 14.9055 66.0467 15.8727C65.5838 16.8399 64.9409 17.5948 64.1241 18.1374C63.3073 18.6799 62.3637 18.9512 61.2933 18.9512C60.3821 18.9512 59.5801 18.7389 58.8871 18.3143ZM61.7179 15.4952C62.1897 15.1886 62.5554 14.7787 62.8149 14.2685C63.0744 13.7584 63.2041 13.1804 63.2041 12.5346C63.2041 11.8889 63.0744 11.3168 62.8149 10.8125C62.5554 10.3083 62.1897 9.90431 61.7179 9.59764C61.2461 9.29096 60.7183 9.13763 60.1374 9.13763C59.5565 9.13763 59.0257 9.29096 58.545 9.59764C58.0644 9.90431 57.6928 10.3083 57.4245 10.8125C57.1562 11.3168 57.0235 11.8889 57.0235 12.5346C57.0235 13.1804 57.1562 13.7584 57.4245 14.2685C57.6928 14.7787 58.0644 15.1886 58.545 15.4952C59.0257 15.8019 59.5565 15.9553 60.1374 15.9553C60.7183 15.9553 61.2461 15.8019 61.7179 15.4952Z" fill="black"/>
  <path d="M71.0478 18.2327C70.0482 17.6901 69.2667 16.9323 68.7006 15.9562C68.1344 14.9802 67.8513 13.8419 67.8513 12.5356C67.8513 11.2293 68.1344 10.0852 68.7006 9.10321C69.2667 8.12126 70.0482 7.36047 71.0478 6.82673C72.0474 6.293 73.221 6.02466 74.5745 6.02466C75.928 6.02466 77.0663 6.293 78.0895 6.82673C79.1127 7.36047 79.8941 8.12126 80.4367 9.10321C80.9793 10.0852 81.2506 11.2293 81.2506 12.5356C81.2506 13.8419 80.9793 14.9802 80.4367 15.9562C79.8941 16.9323 79.1127 17.6901 78.0895 18.2327C77.0663 18.7753 75.8956 19.0466 74.5745 19.0466C73.2535 19.0466 72.0474 18.7753 71.0478 18.2327ZM76.2612 15.6613C76.7389 15.3694 77.1105 14.9566 77.37 14.4228C77.6295 13.8891 77.7592 13.2581 77.7592 12.5356C77.7592 11.8132 77.6295 11.188 77.37 10.6602C77.1105 10.1323 76.7419 9.7254 76.2612 9.43347C75.7806 9.14154 75.2174 8.99705 74.5745 8.99705C73.9317 8.99705 73.3626 9.14154 72.876 9.43347C72.3895 9.7254 72.0121 10.1323 71.7437 10.6602C71.4754 11.188 71.3427 11.8132 71.3427 12.5356C71.3427 13.2581 71.4754 13.8891 71.7437 14.4228C72.0121 14.9566 72.3895 15.3694 72.876 15.6613C73.3626 15.9533 73.9288 16.0978 74.5745 16.0978C75.2203 16.0978 75.7806 15.9533 76.2612 15.6613Z" fill="black"/>
  <path d="M82.7605 6.49586H85.6149L86.1811 8.54822H86.2047C86.5349 7.80807 87.0628 7.21831 87.7852 6.77894C88.5077 6.33957 89.3333 6.11841 90.2622 6.11841C91.1911 6.11841 91.9695 6.33367 92.5976 6.76714C93.2257 7.20062 93.668 7.82576 93.9187 8.64258H93.9423C94.4465 7.80807 95.0717 7.17998 95.8177 6.75535C96.5637 6.33072 97.3953 6.11841 98.3065 6.11841C99.1085 6.11841 99.7956 6.29534 100.371 6.64919C100.946 7.00305 101.382 7.50729 101.68 8.15898C101.978 8.81066 102.128 9.59505 102.128 10.5062L102.152 18.5741H98.5896V11.2139C98.5896 10.5534 98.4215 10.0433 98.0824 9.68056C97.7433 9.31786 97.2538 9.13798 96.608 9.13798C96.1362 9.13798 95.7204 9.25888 95.3577 9.50363C94.995 9.74838 94.7208 10.0786 94.532 10.4944C94.3433 10.9102 94.249 11.4027 94.249 11.9688L94.2254 18.5741H90.6868V11.2139C90.6868 10.5534 90.5128 10.0433 90.1678 9.68056C89.8228 9.31786 89.3333 9.13798 88.7052 9.13798C87.9651 9.13798 87.3812 9.39748 86.9478 9.91647C86.5143 10.4355 86.299 11.1196 86.299 11.9688V18.5741H82.7605V6.49586Z" fill="black"/>
  <path d="M104.378 4.24323C103.977 3.85694 103.776 3.35859 103.776 2.74524C103.776 2.33535 103.868 1.97855 104.048 1.67187C104.228 1.3652 104.475 1.12635 104.791 0.952366C105.106 0.778386 105.475 0.692871 105.899 0.692871C106.545 0.692871 107.058 0.878646 107.445 1.24725C107.831 1.61585 108.023 2.11714 108.023 2.74524C108.023 3.16987 107.931 3.53552 107.751 3.84219C107.571 4.14887 107.321 4.38772 107.008 4.5617C106.693 4.73568 106.324 4.82119 105.899 4.82119C105.286 4.82119 104.779 4.62952 104.378 4.24323ZM104.107 6.49611H107.669V18.5744H104.107V6.49611Z" fill="black"/>
  <path d="M111.16 9.1853H108.872V6.49599H111.16V5.08057C111.16 4.19888 111.358 3.41449 111.75 2.72153C112.142 2.02856 112.691 1.50367 113.39 1.14097C114.088 0.778266 114.902 0.598389 115.831 0.598389C116.76 0.598389 117.621 0.807754 118.367 1.22353C119.113 1.63932 119.7 2.18779 120.125 2.86307L118.78 4.96262C118.544 4.52324 118.223 4.16349 117.813 3.88925C117.403 3.61501 116.964 3.47642 116.492 3.47642C115.958 3.47642 115.525 3.65335 115.194 4.0072C114.864 4.36106 114.699 4.82992 114.699 5.41083V6.49599H119.157V9.1853H114.699L114.722 18.5743H111.184L111.16 9.1853Z" fill="black"/>
  <path d="M122.769 23.717C121.997 23.5283 121.304 23.2599 120.682 22.9149C120.059 22.5699 119.561 22.1512 119.184 21.6646L120.67 19.164C121 19.5562 121.386 19.8953 121.826 20.1784C122.265 20.4615 122.755 20.6738 123.288 20.8154C123.822 20.9569 124.365 21.0277 124.916 21.0277C125.703 21.0277 126.379 20.8979 126.945 20.6384C127.511 20.3789 127.947 19.9985 128.254 19.4943C128.561 18.99 128.714 18.4003 128.714 17.725V16.8286H128.69C128.298 17.5363 127.762 18.0936 127.086 18.5035C126.411 18.9134 125.68 19.1168 124.892 19.1168C123.996 19.1168 123.206 18.9193 122.522 18.5271C121.838 18.1349 121.31 17.5717 120.941 16.8404C120.572 16.1091 120.387 15.2628 120.387 14.3044V6.49597H123.949V13.7382C123.949 14.21 124.034 14.6376 124.208 15.0239C124.382 15.4102 124.636 15.7051 124.975 15.9085C125.314 16.112 125.703 16.2152 126.143 16.2152C126.582 16.2152 127.024 16.0973 127.417 15.8614C127.809 15.6255 128.118 15.3158 128.348 14.9295C128.575 14.5433 128.69 14.0832 128.69 13.5495V6.49597H132.253V17.8194C132.253 19.0933 131.961 20.1873 131.38 21.0984C130.799 22.0096 129.979 22.7232 128.926 23.2334C127.874 23.7435 126.629 24.0001 125.199 24.0001C124.35 24.0001 123.539 23.9057 122.769 23.717Z" fill="black"/>
  <path d="M1.16477 0.000219807C-0.345008 -0.0204218 -0.347956 2.35336 1.16477 2.33272H9.13533C10.651 2.35926 10.654 -0.0263194 9.13533 0.000219807H1.16477ZM12.9216 0.000219807C11.4177 -0.0204218 11.4088 2.35336 12.9216 2.33272H31.8616C32.5044 2.33272 33.0234 1.81078 33.0234 1.17089C33.0234 0.525107 32.5044 0.00316861 31.8616 0.00316861H12.9216V0.000219807ZM1.16477 4.03418C-0.342059 4.01354 -0.350905 6.39027 1.16477 6.36668H14.2367C14.8796 6.36668 15.3985 5.84475 15.3985 5.20191C15.4015 4.55907 14.8796 4.03418 14.2367 4.03418H1.16477ZM1.16477 8.07404C-0.33911 8.0534 -0.350905 10.4213 1.16477 10.4006H20.208C20.8508 10.4006 21.3698 9.87871 21.3698 9.23882C21.3698 8.59598 20.8479 8.07699 20.208 8.07699H1.16477V8.07404ZM31.8616 22.8298C33.3714 22.8505 33.3743 20.4767 31.8616 20.4973H23.891C22.3754 20.4708 22.3724 22.8564 23.891 22.8298H31.8616ZM20.1019 22.8298C21.6057 22.8505 21.6146 20.4767 20.1019 20.4973H1.16182C0.521935 20.5003 0 21.0193 0 21.6621C0 22.3079 0.518986 22.8298 1.16182 22.8298H20.1019ZM31.8616 18.7959C33.3684 18.8165 33.3773 16.4398 31.8616 16.4634H18.7896C18.1468 16.4634 17.6278 16.9853 17.6278 17.6282C17.6249 18.271 18.1468 18.7959 18.7896 18.7959H31.8616ZM31.8616 14.756C33.3655 14.7767 33.3773 12.4088 31.8616 12.4294H12.8184C12.1755 12.4294 11.6565 12.9514 11.6565 13.5912C11.6565 14.2341 12.1785 14.7531 12.8184 14.7531H31.8616V14.756Z" fill="url(#paint0_linear_390_5431)"/>
  <defs>
    <linearGradient id="paint0_linear_390_5431" x1="0" y1="11.415" x2="33.7847" y2="14.504" gradientUnits="userSpaceOnUse">
      <stop offset="0.06" stop-color="#4059D0"/>
      <stop offset="0.555" stop-color="#CC58BB"/>
      <stop offset="1" stop-color="#F4B57F"/>
    </linearGradient>
  </defs>
</svg>