<svg width="34" height="23" viewBox="0 0 34 23" fill="none" xmlns="http://www.w3.org/2000/svg">
  <path d="M1.16477 0.000219807C-0.345008 -0.0204218 -0.347956 2.35336 1.16477 2.33272H9.13533C10.651 2.35926 10.654 -0.0263194 9.13533 0.000219807H1.16477ZM12.9216 0.000219807C11.4177 -0.0204218 11.4088 2.35336 12.9216 2.33272H31.8616C32.5044 2.33272 33.0234 1.81078 33.0234 1.17089C33.0234 0.525107 32.5044 0.00316861 31.8616 0.00316861H12.9216V0.000219807ZM1.16477 4.03418C-0.342059 4.01354 -0.350905 6.39027 1.16477 6.36668H14.2367C14.8796 6.36668 15.3985 5.84475 15.3985 5.20191C15.4015 4.55907 14.8796 4.03418 14.2367 4.03418H1.16477ZM1.16477 8.07404C-0.33911 8.0534 -0.350905 10.4213 1.16477 10.4006H20.208C20.8508 10.4006 21.3698 9.87871 21.3698 9.23882C21.3698 8.59598 20.8479 8.07699 20.208 8.07699H1.16477V8.07404ZM31.8616 22.8298C33.3714 22.8505 33.3743 20.4767 31.8616 20.4973H23.891C22.3754 20.4708 22.3724 22.8564 23.891 22.8298H31.8616ZM20.1019 22.8298C21.6057 22.8505 21.6146 20.4767 20.1019 20.4973H1.16182C0.521935 20.5003 0 21.0193 0 21.6621C0 22.3079 0.518986 22.8298 1.16182 22.8298H20.1019ZM31.8616 18.7959C33.3684 18.8165 33.3773 16.4398 31.8616 16.4634H18.7896C18.1468 16.4634 17.6278 16.9853 17.6278 17.6282C17.6249 18.271 18.1468 18.7959 18.7896 18.7959H31.8616ZM31.8616 14.756C33.3655 14.7767 33.3773 12.4088 31.8616 12.4294H12.8184C12.1755 12.4294 11.6565 12.9514 11.6565 13.5912C11.6565 14.2341 12.1785 14.7531 12.8184 14.7531H31.8616V14.756Z" fill="url(#paint0_linear_390_4967)"/>
  <defs>
    <linearGradient id="paint0_linear_390_4967" x1="0" y1="11.415" x2="33.7847" y2="14.504" gradientUnits="userSpaceOnUse">
      <stop offset="0.06" stop-color="#4059D0"/>
      <stop offset="0.555" stop-color="#CC58BB"/>
      <stop offset="1" stop-color="#F4B57F"/>
    </linearGradient>
  </defs>
</svg>