<svg width="1153" height="209" viewBox="0 0 1153 209" fill="none" xmlns="http://www.w3.org/2000/svg">
<path d="M378.397 160.594C370.712 157.728 364.543 153.608 359.891 148.208C355.239 142.808 352.617 136.23 352.077 128.45L379.425 125.174C379.965 128.86 381.378 132.059 383.64 134.797C385.902 137.536 388.961 139.711 392.79 141.349C396.62 142.987 401.015 143.806 405.95 143.806C409.934 143.806 413.533 143.268 416.745 142.168C419.958 141.067 422.529 139.609 424.456 137.766C426.384 135.923 427.335 133.85 427.335 131.521C427.463 128.655 425.819 126.224 422.4 124.253C418.982 122.282 413.558 120.747 406.156 119.646L389.912 116.985C378.397 115.065 369.966 111.764 364.62 107.055C359.274 102.346 356.678 95.6151 356.806 86.8881C356.806 80.055 358.734 74.0663 362.564 68.8711C366.394 63.6758 371.714 59.6834 378.5 56.8938C385.285 54.1042 393.073 52.6967 401.838 52.6967C410.602 52.6967 417.774 54.0019 424.559 56.5867C431.345 59.1715 436.871 62.8313 441.112 67.5403C445.353 72.2493 447.897 77.5981 448.72 83.6123L422.194 87.7071C421.912 83.4843 419.804 80.0038 415.82 77.2654C411.836 74.527 406.901 73.1706 401.015 73.1706C397.725 73.1706 394.77 73.708 392.174 74.8085C389.578 75.909 387.521 77.2654 386.005 78.9033C384.488 80.5412 383.666 82.3839 383.537 84.4313C383.537 86.8881 384.9 88.9355 387.65 90.5734C390.4 92.2113 394.924 93.6445 401.221 94.873L417.259 97.3298C430.702 99.7867 440.392 103.574 446.355 108.693C452.318 113.811 455.3 120.593 455.3 129.064C455.3 136.154 453.166 142.449 448.925 147.9C444.684 153.352 438.67 157.549 430.933 160.492C423.197 163.435 414.304 164.894 404.305 164.894C394.307 164.894 386.082 163.461 378.397 160.594Z" fill="black"/>
<path d="M513.285 158.956C507.245 155.271 502.182 149.871 498.069 142.782H497.864L493.34 161.209H467.431V9.29199H498.275V74.6038H498.48C502.31 67.6427 507.348 62.3195 513.594 58.6342C519.839 54.9489 526.779 53.1062 534.464 53.1062C543.64 53.1062 551.814 55.4607 558.933 60.1697C566.053 64.8787 571.656 71.4048 575.692 79.7223C579.727 88.0399 581.757 97.7394 581.757 108.795C581.757 119.851 579.727 129.372 575.692 137.766C571.656 146.16 566.053 152.712 558.933 157.421C551.814 162.13 543.589 164.484 534.259 164.484C526.317 164.484 519.325 162.642 513.285 158.956ZM537.96 134.49C542.072 131.828 545.26 128.271 547.521 123.844C549.783 119.416 550.914 114.4 550.914 108.795C550.914 103.191 549.783 98.2256 547.521 93.8493C545.26 89.473 542.072 85.9669 537.96 83.3053C533.847 80.6436 529.247 79.3128 524.183 79.3128C519.12 79.3128 514.493 80.6436 510.304 83.3053C506.114 85.9669 502.876 89.473 500.537 93.8493C498.198 98.2256 497.041 103.191 497.041 108.795C497.041 114.4 498.198 119.416 500.537 123.844C502.876 128.271 506.114 131.828 510.304 134.49C514.493 137.152 519.12 138.483 524.183 138.483C529.247 138.483 533.847 137.152 537.96 134.49Z" fill="black"/>
<path d="M619.284 158.24C610.57 153.531 603.759 146.954 598.824 138.482C593.889 130.011 591.422 120.133 591.422 108.795C591.422 97.4578 593.889 87.528 598.824 79.0057C603.759 70.4834 610.57 63.8806 619.284 59.2484C627.997 54.6161 638.227 52.2872 650.024 52.2872C661.822 52.2872 671.743 54.6161 680.662 59.2484C689.581 63.8806 696.392 70.4834 701.121 79.0057C705.851 87.528 708.215 97.4578 708.215 108.795C708.215 120.133 705.851 130.011 701.121 138.482C696.392 146.954 689.581 153.531 680.662 158.24C671.743 162.949 661.539 165.303 650.024 165.303C638.509 165.303 627.997 162.949 619.284 158.24ZM664.726 135.923C668.89 133.39 672.129 129.807 674.391 125.174C676.652 120.542 677.783 115.065 677.783 108.795C677.783 102.525 676.652 97.0996 674.391 92.5185C672.129 87.9375 668.916 84.4057 664.726 81.8721C660.537 79.3384 655.627 78.0844 650.024 78.0844C644.421 78.0844 639.46 79.3384 635.219 81.8721C630.978 84.4057 627.689 87.9375 625.35 92.5185C623.011 97.0996 621.854 102.525 621.854 108.795C621.854 115.065 623.011 120.542 625.35 125.174C627.689 129.807 630.978 133.39 635.219 135.923C639.46 138.457 644.395 139.711 650.024 139.711C655.653 139.711 660.537 138.457 664.726 135.923Z" fill="black"/>
<path d="M721.375 56.382H746.256L751.191 74.1944H751.396C754.275 67.7707 758.876 62.6522 765.173 58.8389C771.47 55.0256 778.667 53.1062 786.763 53.1062C794.86 53.1062 801.645 54.9744 807.12 58.7365C812.594 62.4986 816.45 67.9242 818.635 75.0133H818.84C823.235 67.7707 828.684 62.3195 835.187 58.6342C841.69 54.9489 848.938 53.1062 856.88 53.1062C863.872 53.1062 869.86 54.6417 874.872 57.7128C879.884 60.7839 883.689 65.1602 886.284 70.8162C888.88 76.4721 890.191 83.2797 890.191 91.1877L890.397 161.209H859.348V97.3299C859.348 91.5972 857.883 87.1697 854.927 84.0218C851.971 80.874 847.705 79.3128 842.076 79.3128C837.963 79.3128 834.339 80.3621 831.178 82.4863C828.016 84.6105 825.626 87.4768 823.981 91.0853C822.336 94.6939 821.513 98.9678 821.513 103.882L821.308 161.209H790.464V97.3299C790.464 91.5972 788.948 87.1697 785.941 84.0218C782.933 80.874 778.667 79.3128 773.192 79.3128C766.741 79.3128 761.652 81.565 757.873 86.0692C754.095 90.5735 752.219 96.5109 752.219 103.882V161.209H721.375V56.382Z" fill="black"/>
<path d="M909.802 36.8294C906.307 33.4768 904.559 29.1517 904.559 23.8284C904.559 20.2711 905.356 17.1744 906.924 14.5128C908.492 11.8512 910.651 9.7782 913.401 8.26825C916.151 6.75829 919.364 6.01611 923.065 6.01611C928.694 6.01611 933.166 7.62844 936.533 10.8275C939.9 14.0265 941.571 18.3773 941.571 23.8284C941.571 27.5137 940.774 30.6872 939.206 33.3488C937.639 36.0104 935.454 38.0834 932.729 39.5934C929.979 41.1033 926.766 41.8455 923.065 41.8455C917.719 41.8455 913.298 40.182 909.802 36.8294ZM907.438 56.382H938.487V161.209H907.438V56.382Z" fill="black"/>
<path d="M968.919 79.7223H948.974V56.382H968.919V44.0976C968.919 36.4455 970.641 29.6379 974.06 23.6237C977.478 17.6095 982.259 13.054 988.35 9.90615C994.442 6.75828 1001.54 5.19714 1009.63 5.19714C1017.73 5.19714 1025.23 7.01421 1031.74 10.6227C1038.24 14.2313 1043.35 18.9915 1047.06 24.8521L1035.34 43.0739C1033.28 39.2607 1030.48 36.1384 1026.9 33.7583C1023.33 31.3782 1019.5 30.1753 1015.39 30.1753C1010.74 30.1753 1006.96 31.7109 1004.08 34.782C1001.2 37.8531 999.762 41.9223 999.762 46.964V56.382H1038.63V79.7223H999.762L999.968 161.209H969.125L968.919 79.7223Z" fill="black"/>
<path d="M1070.11 205.842C1063.38 204.204 1057.34 201.875 1051.91 198.881C1046.49 195.886 1042.15 192.252 1038.86 188.029L1051.81 166.327C1054.69 169.731 1058.06 172.674 1061.89 175.131C1065.72 177.588 1069.98 179.43 1074.63 180.659C1079.29 181.887 1084.02 182.501 1088.82 182.501C1095.69 182.501 1101.57 181.375 1106.51 179.123C1111.44 176.871 1115.25 173.57 1117.92 169.193C1120.59 164.817 1121.93 159.699 1121.93 153.838V146.058H1121.72C1118.3 152.2 1113.63 157.037 1107.74 160.594C1101.85 164.152 1095.48 165.918 1088.62 165.918C1080.8 165.918 1073.92 164.203 1067.95 160.799C1061.99 157.395 1057.39 152.507 1054.18 146.16C1050.96 139.813 1049.34 132.468 1049.34 124.151V56.382H1080.39V119.237C1080.39 123.332 1081.14 127.043 1082.65 130.395C1084.17 133.748 1086.38 136.307 1089.34 138.073C1092.29 139.839 1095.69 140.735 1099.52 140.735C1103.34 140.735 1107.2 139.711 1110.62 137.663C1114.04 135.616 1116.74 132.929 1118.74 129.576C1120.72 126.224 1121.72 122.231 1121.72 117.599V56.382H1152.77V154.657C1152.77 165.713 1150.23 175.208 1145.16 183.116C1140.1 191.024 1132.95 197.217 1123.78 201.645C1114.6 206.072 1103.76 208.299 1091.29 208.299C1083.89 208.299 1076.82 207.48 1070.11 205.842Z" fill="black"/>
<path d="M10.1526 0.00190769C-3.00723 -0.177239 -3.03293 20.4247 10.1526 20.2455H79.6273C92.8385 20.4758 92.8643 -0.228424 79.6273 0.00190769H10.1526ZM112.63 0.00190769C99.5213 -0.177239 99.4442 20.4247 112.63 20.2455H277.719C283.322 20.2455 287.846 15.7157 287.846 10.1621C287.846 4.55736 283.322 0.0275001 277.719 0.0275001H112.63V0.00190769ZM10.1526 35.0123C-2.98153 34.8332 -3.05863 55.4607 10.1526 55.2559H124.093C129.696 55.2559 134.22 50.7261 134.22 45.1469C134.246 39.5678 129.696 35.0123 124.093 35.0123H10.1526ZM10.1526 70.0739C-2.95582 69.8948 -3.05863 90.4455 10.1526 90.2664H176.141C181.745 90.2664 186.268 85.7365 186.268 80.1829C186.268 74.6038 181.719 70.0995 176.141 70.0995H10.1526V70.0739ZM277.719 198.138C290.879 198.318 290.904 177.716 277.719 177.895H208.244C195.033 177.664 195.007 198.369 208.244 198.138H277.719ZM175.216 198.138C188.324 198.318 188.402 177.716 175.216 177.895H10.1269C4.5494 177.92 0 182.425 0 188.004C0 193.609 4.52369 198.138 10.1269 198.138H175.216ZM277.719 163.128C290.853 163.307 290.93 142.68 277.719 142.884H163.778C158.175 142.884 153.651 147.414 153.651 152.993C153.626 158.573 158.175 163.128 163.778 163.128H277.719ZM277.719 128.066C290.827 128.245 290.93 107.695 277.719 107.874H111.73C106.127 107.874 101.603 112.404 101.603 117.957C101.603 123.536 106.153 128.041 111.73 128.041H277.719V128.066Z" fill="url(#paint0_linear_1995_2)"/>
<defs>
<linearGradient id="paint0_linear_1995_2" x1="0" y1="99.0701" x2="294.46" y2="126.11" gradientUnits="userSpaceOnUse">
<stop offset="0.06" stop-color="#4059D0"/>
<stop offset="0.555" stop-color="#CC58BB"/>
<stop offset="1" stop-color="#F4B57F"/>
</linearGradient>
</defs>
</svg>
